<svg width="14" height="14" viewBox="0 0 14 14" fill="currentColor" xmlns="http://www.w3.org/2000/svg">
    <path d="M2.42383 4.43408H9.88867C10.0322 4.43408 10.1758 4.30847 10.1758 4.14697V2.99854C10.1758 2.85498 10.0322 2.71143 9.88867 2.71143H2.42383C2.26233 2.71143 2.13672 2.85498 2.13672 2.99854V4.14697C2.13672 4.30847 2.26233 4.43408 2.42383 4.43408ZM11.0371 5.86963H3.57227C3.41077 5.86963 3.28516 6.01318 3.28516 6.15674V7.30518C3.28516 7.46668 3.41077 7.59229 3.57227 7.59229H11.0371C11.1807 7.59229 11.3242 7.46668 11.3242 7.30518V6.15674C11.3242 6.01318 11.1807 5.86963 11.0371 5.86963ZM9.88867 9.02783H2.42383C2.26233 9.02783 2.13672 9.17139 2.13672 9.31494V10.4634C2.13672 10.6249 2.26233 10.7505 2.42383 10.7505H9.88867C10.0322 10.7505 10.1758 10.6249 10.1758 10.4634V9.31494C10.1758 9.17139 10.0322 9.02783 9.88867 9.02783Z" fill="currentColor"/>
</svg>
